<?xml version="1.0" encoding="utf-8"?>
<!-- Generator: Adobe Illustrator 24.3.0, SVG Export Plug-In . SVG Version: 6.00 Build 0)  -->
<svg version="1.1" xmlns="http://www.w3.org/2000/svg" xmlns:xlink="http://www.w3.org/1999/xlink" x="0px" y="0px"
	 viewBox="0 0 765.4 340.2" style="enable-background:new 0 0 765.4 340.2;" xml:space="preserve">
<style type="text/css">
	.st0{fill:#FFFFFF;}
	.st1{fill:#0066B1;}
</style>
<g id="BMW">
</g>
<g id="BMW_i">
	<g id="BMW-logo-white-default-53px">
		<g id="BMW-logo">
			<g id="BMW-logo-white">
				<g id="BMW-Logo-103x115-White-NEW">
					<path id="Shape" class="st0" d="M170.1,0C76.1,0,0,76.1,0,170.1s76.1,170.1,170.1,170.1S340.2,264,340.2,170.1S264,0,170.1,0
						L170.1,0z M329.1,170.1c0,87.8-71.2,159-159,159s-159-71.2-159-159s71.2-159,159-159S329.1,82.3,329.1,170.1z"/>
					<g id="Group" transform="translate(7.304985, 3.108504)">
						<path id="W_1_" class="st0" d="M245.2,94.8c2.3,2.5,5.6,6.5,7.5,8.9l34.4-21.9c-1.7-2.2-4.5-5.7-6.5-8.1l-21.8,14.4l-1.5,1.3
							l1.1-1.6l9.6-19.2l-6.8-6.8L242,71.5l-1.6,1.1l1.3-1.5l14.4-21.8c-2.5-2.2-5-4.1-8.1-6.5l-21.9,34.4c2.8,2.1,6.4,5.3,8.7,7.4
							l20.6-10.7l1.3-1l-1,1.3L245.2,94.8z"/>
						<path id="M_1_" class="st0" d="M167.1,51.2l9.4-21.1l0.6-1.9l-0.2,1.9l1,28.2c3.3,0.3,6.7,0.8,10.1,1.3L186.4,18
							c-4.7-0.5-9.4-0.9-14.1-1.1l-9.3,23l-0.3,1.7l-0.3-1.7l-9.3-23c-4.7,0.2-9.4,0.6-14.1,1.1l-1.5,41.7c3.4-0.6,6.8-1,10.1-1.3
							l1-28.2l-0.2-1.9l0.6,1.9l9.4,21.1H167.1z"/>
						<path id="B_x5F_22d_1_" class="st0" d="M90.9,84.5c5.4-5.7,8.5-12.3,3.1-18.7c-3-3.4-7.9-4.2-12-2.5l-0.4,0.2l0.1-0.4
							c0.6-1.6,1-6.8-3.4-10.4c-2.2-1.7-4.9-2.4-7.6-2.1c-5.1,0.5-9,4-19.7,15.9c-3.2,3.6-7.9,9.3-10.7,13l29.4,27.9
							C79.3,96.6,83.3,92.5,90.9,84.5z M52.6,77.6c5.9-7.2,12.2-13.8,15.1-16.4c0.9-0.8,1.9-1.6,3.1-2c1.9-0.5,3.9,0.8,4.4,2.8
							c0.4,2-0.8,3.9-2.2,5.4c-3.1,3.5-14.6,15.5-14.6,15.5L52.6,77.6z M64.1,88.6c0,0,11.2-11.8,14.8-15.6c1.4-1.5,2.4-2.4,3.4-2.9
							c1.3-0.6,2.7-0.8,4,0.1c1.2,0.8,1.8,2.3,1.5,3.7c-0.4,1.7-1.7,3.3-2.9,4.5C83.3,80,70.1,94.2,70.1,94.2L64.1,88.6z"/>
					</g>
					<path id="Path" class="st0" d="M270.9,170.1H170.1V69.2C225.8,69.2,270.9,114.3,270.9,170.1z"/>
					<path id="Path_1_" class="st0" d="M170.1,170.1v100.9c-55.7,0-100.9-45.1-100.9-100.9H170.1L170.1,170.1z"/>
					<path id="Path_2_" class="st1" d="M170.1,69.2v100.9H69.2C69.2,114.3,114.3,69.2,170.1,69.2z"/>
					<path id="Path_3_" class="st1" d="M270.9,170.1c0,55.7-45.1,100.9-100.9,100.9V170.1H270.9z"/>
				</g>
			</g>
		</g>
	</g>
</g>
</svg>
